<svg width="180" height="120" viewBox="0 0 180 120" xmlns="http://www.w3.org/2000/svg">
  <defs>
    <marker id="arr" viewBox="0 0 10 10" refX="8" refY="5" markerWidth="6" markerHeight="6" orient="auto-start-reverse">
      <path d="M2 1L8 5L2 9" fill="none" stroke="context-stroke" stroke-width="1.5" stroke-linecap="round" stroke-linejoin="round"/>
    </marker>
  </defs>

  <!-- dark background -->
  <rect width="180" height="120" fill="#0f1117"/>

  <!-- left card -->
  <rect x="10" y="30" width="56" height="56" rx="12" fill="#5B8FE8" opacity="0.18"/>
  <rect x="10" y="30" width="56" height="56" rx="12" fill="none" stroke="#5B8FE8" stroke-width="1.5" opacity="0.85"/>
  <line x1="22" y1="46" x2="54" y2="46" stroke="#5B8FE8" stroke-width="1.1" opacity="0.6"/>
  <line x1="22" y1="58" x2="54" y2="58" stroke="#5B8FE8" stroke-width="1.1" opacity="0.6"/>
  <line x1="22" y1="70" x2="46" y2="70" stroke="#5B8FE8" stroke-width="1.1" opacity="0.35"/>

  <!-- right card -->
  <rect x="114" y="30" width="56" height="56" rx="12" fill="#3ABCB0" opacity="0.18"/>
  <rect x="114" y="30" width="56" height="56" rx="12" fill="none" stroke="#3ABCB0" stroke-width="1.5" opacity="0.85"/>
  <line x1="126" y1="46" x2="158" y2="46" stroke="#3ABCB0" stroke-width="1.1" opacity="0.6"/>
  <line x1="126" y1="58" x2="158" y2="58" stroke="#3ABCB0" stroke-width="1.1" opacity="0.6"/>
  <line x1="126" y1="70" x2="148" y2="70" stroke="#3ABCB0" stroke-width="1.1" opacity="0.35"/>

  <!-- connector -->
  <path d="M66 58 C80 58 100 58 114 58" fill="none" stroke="#ffffff" stroke-width="1.8" stroke-linecap="round" marker-end="url(#arr)" opacity="0.7"/>
</svg>
