<svg width="200" height="160" viewBox="0 0 200 160" xmlns="http://www.w3.org/2000/svg">
  <defs>
    <marker id="arr" viewBox="0 0 10 10" refX="8" refY="5" markerWidth="6" markerHeight="6" orient="auto-start-reverse">
      <path d="M2 1L8 5L2 9" fill="none" stroke="context-stroke" stroke-width="1.5" stroke-linecap="round" stroke-linejoin="round"/>
    </marker>
  </defs>

  <!-- DB left -->
  <rect x="18" y="50" width="64" height="72" rx="4" fill="none" stroke="#1a1a1a" stroke-width="1.3" opacity="0.3"/>
  <ellipse cx="50" cy="50" rx="32" ry="10" fill="#5B8FE8" opacity="0.18"/>
  <ellipse cx="50" cy="50" rx="32" ry="10" fill="none" stroke="#5B8FE8" stroke-width="1.5"/>
  <path d="M18 68 Q50 78 82 68" fill="none" stroke="#1a1a1a" stroke-width="1.2" opacity="0.25"/>
  <path d="M18 88 Q50 98 82 88" fill="none" stroke="#1a1a1a" stroke-width="1.2" opacity="0.25"/>
  <ellipse cx="50" cy="122" rx="32" ry="10" fill="none" stroke="#1a1a1a" stroke-width="1.2" opacity="0.3"/>

  <!-- DB right -->
  <rect x="118" y="50" width="64" height="72" rx="4" fill="none" stroke="#1a1a1a" stroke-width="1.3" opacity="0.3"/>
  <ellipse cx="150" cy="50" rx="32" ry="10" fill="#3ABCB0" opacity="0.18"/>
  <ellipse cx="150" cy="50" rx="32" ry="10" fill="none" stroke="#3ABCB0" stroke-width="1.5"/>
  <path d="M118 68 Q150 78 182 68" fill="none" stroke="#1a1a1a" stroke-width="1.2" opacity="0.25"/>
  <path d="M118 88 Q150 98 182 88" fill="none" stroke="#1a1a1a" stroke-width="1.2" opacity="0.25"/>
  <ellipse cx="150" cy="122" rx="32" ry="10" fill="none" stroke="#1a1a1a" stroke-width="1.2" opacity="0.3"/>

  <!-- arc top -->
  <path d="M82 56 C96 20 104 20 118 56" fill="none" stroke="#5B8FE8" stroke-width="2" stroke-linecap="round" marker-end="url(#arr)"/>
  <!-- arc bottom dashed -->
  <path d="M118 80 C104 110 96 110 82 80" fill="none" stroke="#3ABCB0" stroke-width="1.4" stroke-linecap="round" stroke-dasharray="4 3" marker-end="url(#arr)"/>
</svg>
