<svg width="200" height="120" viewBox="0 0 200 120" xmlns="http://www.w3.org/2000/svg">
  <defs>
    <marker id="arr" viewBox="0 0 10 10" refX="8" refY="5" markerWidth="6" markerHeight="6" orient="auto-start-reverse">
      <path d="M2 1L8 5L2 9" fill="none" stroke="context-stroke" stroke-width="1.5" stroke-linecap="round" stroke-linejoin="round"/>
    </marker>
  </defs>

  <!-- left card -->
  <rect x="10" y="22" width="72" height="72" rx="14" fill="#5B8FE8" opacity="0.12"/>
  <rect x="10" y="22" width="72" height="72" rx="14" fill="none" stroke="#5B8FE8" stroke-width="1.6"/>
  <line x1="24" y1="44" x2="68" y2="44" stroke="#5B8FE8" stroke-width="1.2" opacity="0.6"/>
  <line x1="24" y1="58" x2="68" y2="58" stroke="#5B8FE8" stroke-width="1.2" opacity="0.6"/>
  <line x1="24" y1="72" x2="56" y2="72" stroke="#5B8FE8" stroke-width="1.2" opacity="0.35"/>

  <!-- right card -->
  <rect x="118" y="22" width="72" height="72" rx="14" fill="#3ABCB0" opacity="0.12"/>
  <rect x="118" y="22" width="72" height="72" rx="14" fill="none" stroke="#3ABCB0" stroke-width="1.6"/>
  <line x1="132" y1="44" x2="176" y2="44" stroke="#3ABCB0" stroke-width="1.2" opacity="0.6"/>
  <line x1="132" y1="58" x2="176" y2="58" stroke="#3ABCB0" stroke-width="1.2" opacity="0.6"/>
  <line x1="132" y1="72" x2="162" y2="72" stroke="#3ABCB0" stroke-width="1.2" opacity="0.35"/>

  <!-- connector arrow -->
  <path d="M82 58 C96 58 104 58 118 58" fill="none" stroke="#1a1a1a" stroke-width="2" stroke-linecap="round" marker-end="url(#arr)" opacity="0.6"/>
</svg>
